<?xml version="1.0" standalone="no"?>
<!DOCTYPE svg PUBLIC "-//W3C//DTD SVG 20010904//EN"
 "http://www.w3.org/TR/2001/REC-SVG-20010904/DTD/svg10.dtd">
<svg version="1.0" xmlns="http://www.w3.org/2000/svg"
 width="700.000000pt" height="700.000000pt" viewBox="0 0 700.000000 700.000000"
 preserveAspectRatio="xMidYMid meet">
<metadata>
Created by potrace 1.14, written by Peter Selinger 2001-2017
</metadata>
<g transform="translate(0.000000,700.000000) scale(0.100000,-0.100000)"
fill="#000000" stroke="none">
<path d="M5668 6995 c-1 -1 -43 -6 -93 -9 -49 -4 -103 -8 -120 -11 -16 -3 -46
-7 -65 -9 -295 -40 -616 -132 -925 -264 -70 -30 -309 -153 -326 -168 -8 -8
-18 -14 -22 -14 -6 0 -157 -93 -182 -112 -5 -4 -55 -41 -111 -81 -104 -77
-272 -219 -359 -304 -27 -27 -99 -107 -160 -178 -60 -72 -112 -132 -115 -135
-3 -3 -58 -66 -121 -140 -179 -211 -141 -187 -309 -194 -80 -3 -158 -8 -175
-10 -16 -2 -57 -7 -90 -10 -85 -9 -163 -23 -290 -52 -754 -174 -1401 -615
-1835 -1251 -39 -57 -70 -105 -70 -107 0 -3 -13 -26 -30 -53 -36 -58 -44 -114
-24 -162 23 -54 62 -89 118 -105 58 -16 361 -94 391 -101 46 -10 463 -116 498
-127 20 -6 37 -13 37 -16 0 -5 -111 -311 -155 -427 -49 -128 -65 -211 -61
-315 2 -52 7 -108 10 -124 14 -60 63 -174 101 -230 37 -56 964 -993 1056
-1068 76 -62 180 -112 276 -134 62 -14 219 -13 283 2 36 9 181 58 323 111 142
52 261 93 263 90 4 -4 30 -104 185 -712 65 -256 66 -258 101 -292 62 -59 148
-62 228 -9 22 14 42 26 45 26 13 0 291 198 331 235 6 5 40 35 74 65 395 342
704 809 876 1326 42 126 106 388 118 484 11 89 18 135 22 160 2 14 6 95 10
180 6 141 8 157 28 175 11 11 82 72 156 135 74 63 137 117 140 120 3 3 63 55
134 115 160 136 173 149 337 330 155 173 391 535 490 752 12 26 32 71 44 98
80 175 181 482 211 641 2 12 13 65 24 118 11 54 23 125 26 159 3 34 8 65 10
69 24 39 24 681 -1 817 -3 18 -13 90 -20 141 -5 34 -9 59 -20 110 -3 14 -7 34
-9 45 -19 95 -50 207 -66 233 -11 18 -34 41 -52 52 -27 16 -142 49 -228 66
-14 2 -45 9 -70 14 -49 10 -155 26 -235 35 -27 3 -66 8 -85 11 -40 5 -516 14
-522 9z"/>
<path d="M776 1965 c-30 -10 -89 -63 -233 -207 -106 -106 -200 -208 -210 -228
-64 -135 80 -280 217 -219 41 19 386 352 424 412 10 15 20 49 21 74 8 121
-105 207 -219 168z"/>
<path d="M1261 1476 c-48 -17 -1236 -1205 -1251 -1252 -13 -38 -8 -96 11 -137
15 -34 77 -76 120 -83 87 -14 71 -29 713 613 329 329 605 611 613 627 30 58
20 140 -25 189 -42 47 -118 65 -181 43z"/>
<path d="M1742 985 c-19 -8 -165 -147 -345 -328 -333 -332 -340 -341 -331
-425 12 -106 139 -174 238 -127 18 9 172 156 343 328 335 336 339 341 323 427
-19 104 -132 165 -228 125z"/>
</g>
</svg>
